<?xml version="1.0" encoding="UTF-8" standalone="no"?>
<svg
   xmlns:dc="http://purl.org/dc/elements/1.1/"
   xmlns:cc="http://creativecommons.org/ns#"
   xmlns:rdf="http://www.w3.org/1999/02/22-rdf-syntax-ns#"
   xmlns:svg="http://www.w3.org/2000/svg"
   xmlns="http://www.w3.org/2000/svg"
   viewBox="0 0 1321.9611 1421.1001"
   height="1421.1001"
   width="1321.9611"
   id="svg815"
   version="1.1">
  <metadata
     id="metadata821">
    <rdf:RDF>
      <cc:Work
         rdf:about="">
        <dc:format>image/svg+xml</dc:format>
        <dc:type
           rdf:resource="http://purl.org/dc/dcmitype/StillImage" />
        <dc:title></dc:title>
      </cc:Work>
    </rdf:RDF>
  </metadata>
  <defs
     id="defs819" />
  <g
     transform="translate(-300.1657,-204.2387)"
     style="fill:#ffffff;fill-opacity:1;stroke:none;stroke-opacity:1"
     id="g846">
    <path
       id="rect825"
       transform="translate(133.77216,85.386483)"
       d="M 691.31445,565.87659 V 696.01172 H 561.88407 c -60.57154,0 -60.57157,-4e-5 -60.57157,62.15377 v 149.42634 c 0,57.2758 -0.0116,58.41989 56.30224,58.41989 h 133.69971 v 129.43038 c 0,60.5696 -3e-5,60.5696 58.41988,60.5696 h 150.84945 c 60.73064,0 60.73067,0 60.73067,-59.1465 V 966.01172 H 1088.434 c 62.8889,0 62.8785,-1.14409 62.8785,-61.2661 V 758.16549 c 0,-62.15381 0,-62.15377 -62.8785,-62.15377 H 961.31445 V 564.62279 c 0,-58.61105 -3e-5,-58.61107 -61.05985,-58.61107 H 750.31748 c -59.00306,-4e-5 -59.00303,2e-5 -59.00303,59.86487 z"
       style="color:#000000;font-style:normal;font-variant:normal;font-weight:normal;font-stretch:normal;font-size:medium;line-height:normal;font-family:sans-serif;font-variant-ligatures:normal;font-variant-position:normal;font-variant-caps:normal;font-variant-numeric:normal;font-variant-alternates:normal;font-feature-settings:normal;text-indent:0;text-align:start;text-decoration:none;text-decoration-line:none;text-decoration-style:solid;text-decoration-color:#000000;letter-spacing:normal;word-spacing:normal;text-transform:none;writing-mode:lr-tb;direction:ltr;text-orientation:mixed;dominant-baseline:auto;baseline-shift:baseline;text-anchor:start;white-space:normal;shape-padding:0;clip-rule:nonzero;display:inline;overflow:visible;visibility:visible;opacity:1;isolation:auto;mix-blend-mode:normal;color-interpolation:sRGB;color-interpolation-filters:linearRGB;solid-color:#000000;solid-opacity:1;vector-effect:none;fill:#ffffff;fill-opacity:1;fill-rule:nonzero;stroke:none;stroke-width:1.02377021;stroke-linecap:butt;stroke-linejoin:miter;stroke-miterlimit:4;stroke-dasharray:none;stroke-dashoffset:0;stroke-opacity:1;color-rendering:auto;image-rendering:auto;shape-rendering:auto;text-rendering:auto;enable-background:accumulate" />
  </g>
  <path
     id="path850"
     d="m 0,1.1 c 324.1493,169.2989 346.7385,85.7812 659.4787,138.1734 363.5327,60.9012 380.6695,317.56243 594.2962,437.88613 C 965.7302,520.19123 938.3809,324.4159 687.3932,299.2336 423.8483,272.7914 188.2422,272.7825 0,1.1 Z"
     style="fill:#ffffff;fill-opacity:1;stroke:none;stroke-width:1px;stroke-linecap:butt;stroke-linejoin:miter;stroke-opacity:1" />
  <path
     id="path854"
     d="m 29.4119,128.5511 c 116.5635,124.134 127.5273,120.748 234.2909,166.8648 110.9584,47.9288 134.6764,85.0303 201.2182,221.74353 C 370.642,420.68213 344.9008,395.1973 248.9957,369.7455 88.4682,327.1438 85.7116,335.7238 29.4119,128.5511 Z"
     style="fill:#ffffff;fill-opacity:1;stroke:none;stroke-width:1px;stroke-linecap:butt;stroke-linejoin:miter;stroke-opacity:1" />
  <path
     id="path856"
     d="m 66.063,846.01545 c 260.4793,54.5345 225.8812,277.78175 577.337,259.85165 352.0274,-17.9595 412.6235,-26.7054 678.561,315.233 C 1057.5266,1249.9412 846.25208,1253.4376 682.8669,1252.0251 228.2154,1248.0947 280.8323,979.8222 66.063,846.01545 Z"
     style="fill:#ffffff;fill-opacity:1;stroke:none;stroke-width:1px;stroke-linecap:butt;stroke-linejoin:miter;stroke-opacity:1" />
</svg>
